<?xml version="1.0" encoding="UTF-8" standalone="no"?>
<svg
   xmlns:dc="http://purl.org/dc/elements/1.1/"
   xmlns:cc="http://creativecommons.org/ns#"
   xmlns:rdf="http://www.w3.org/1999/02/22-rdf-syntax-ns#"
   xmlns:svg="http://www.w3.org/2000/svg"
   xmlns="http://www.w3.org/2000/svg"
   viewBox="0 0 25.6 25.6"
   height="25.6"
   width="25.6"
   id="svg4567"
   version="1.1">
  <metadata
     id="metadata4573">
    <rdf:RDF>
      <cc:Work
         rdf:about="">
        <dc:format>image/svg+xml</dc:format>
        <dc:type
           rdf:resource="http://purl.org/dc/dcmitype/StillImage" />
        <dc:title></dc:title>
      </cc:Work>
    </rdf:RDF>
  </metadata>
  <defs
     id="defs4571" />
  <g
     id="g5154">
    <path
       style="fill:#106f5c;fill-opacity:1;stroke-width:0.04887771"
       d="M 5.7416974,21.91072 C 4.8706068,21.721756 4.0395948,21.072537 3.6446747,20.272443 3.4434686,19.864808 3.2952949,19.335942 3.2935783,19.019302 L 3.2927288,18.862764 2.0304161,18.848228 C 0.78806987,18.833926 0.76538573,18.831834 0.59633533,18.715908 0.5018645,18.651125 0.37156434,18.52077 0.30678182,18.426231 l -0.11778745,-0.17189 -0.0134218,-6.60208 C 0.16350953,5.7163134 0.17000049,5.0294521 0.23983696,4.8447291 0.3262332,4.6162561 0.58430458,4.3626844 0.7886349,4.3055029 c 0.0734339,-0.02055 2.8608934,-0.037364 6.194353,-0.037364 h 6.0608361 l 0.196351,0.1125795 c 0.107992,0.061918 0.250959,0.1922732 0.317705,0.2896767 l 0.121354,0.1770976 0.01274,6.6641114 c 0.01237,6.469376 0.01002,6.66944 -0.08034,6.846468 -0.114833,0.224996 -0.225627,0.327766 -0.458055,0.42488 -0.150305,0.0628 -0.46189,0.07518 -1.892223,0.07518 H 9.5490674 l -8.505e-4,0.158853 C 9.5465569,19.33578 9.3988848,19.863673 9.1971206,20.27244 8.5798382,21.523029 7.1278858,22.211423 5.7416877,21.910717 Z M 7.067342,20.263575 c 0.9737876,-0.445814 1.2084954,-1.746743 0.4516799,-2.50356 -0.5942923,-0.594291 -1.6019464,-0.594291 -2.1962387,0 -0.3810046,0.381005 -0.5455729,0.994782 -0.4005146,1.493765 0.2755744,0.947943 1.2639129,1.413205 2.1450734,1.009795 z m 12.281714,1.649449 c -1.015822,-0.226925 -1.764112,-0.81931 -2.194539,-1.737313 -0.153943,-0.328326 -0.216554,-0.564919 -0.300174,-1.134285 l -0.02692,-0.183291 -0.792048,-1.95e-4 c -0.88853,-1.96e-4 -1.022404,-0.03971 -1.192916,-0.35202 -0.08321,-0.152402 -0.0879,-0.467695 -0.0879,-5.904131 0,-5.4364364 0.0047,-5.7517288 0.08791,-5.9041442 0.04835,-0.088558 0.158325,-0.2039491 0.244389,-0.2564252 0.150365,-0.091684 0.265538,-0.095419 2.9475,-0.095594 l 2.79102,-1.955e-4 0.166082,0.1099748 c 0.118654,0.078571 0.742141,0.9724709 2.183401,3.130368 l 2.017321,3.0203911 -0.01333,2.929677 -0.01333,2.929676 -0.183981,0.184084 -0.18398,0.184082 -0.854671,0.01537 -0.85467,0.01537 -7.24e-4,0.204579 c -0.0034,0.975792 -0.7517,2.099945 -1.709997,2.569046 -0.672622,0.329259 -1.365142,0.423133 -2.028425,0.274962 z m 1.033758,-1.558984 c 0.674159,-0.179502 1.1413,-0.791784 1.1413,-1.495905 0,-0.537922 -0.250881,-1.000673 -0.700775,-1.292587 -1.134446,-0.736082 -2.584511,0.206343 -2.3733,1.542455 0.144925,0.916788 1.028929,1.486694 1.932775,1.246037 z m 2.900898,-7.777123 c 0,-0.01369 -0.61599,-0.948467 -1.368866,-2.077303 L 20.545981,8.4471842 h -1.319408 -1.319409 v 2.0773018 2.077303 h 2.688274 c 1.47855,0 2.688274,-0.01119 2.688274,-0.02487 z"
       id="path4577" />
    <path
       style="fill:#ffffff;stroke-width:0.06119014"
       d="m 6.8743027,16.228898 -0.4366794,-0.33803 0.205578,-0.435345 C 6.9570858,14.790818 7.0598092,14.321678 7.0600816,13.551619 7.0603877,12.690076 6.9102401,12.138394 6.4272488,11.226392 5.8004373,10.042819 5.567062,9.2060389 5.567062,8.1421446 c 0,-0.6709206 0.069716,-1.1382163 0.2564827,-1.719181 0.1617795,-0.5032406 0.5195112,-1.2238032 0.6075704,-1.2238032 0.036876,0 0.2499278,0.14303 0.4734547,0.3178436 0.223526,0.1748146 0.4139399,0.3223157 0.4231415,0.3277801 0.00918,0.00543 -0.05294,0.1309057 -0.1380861,0.2787597 -0.4007475,0.6958666 -0.6028223,1.8498011 -0.4657473,2.6596017 0.1212596,0.7163624 0.1995041,0.9209604 0.820046,2.1442925 0.1555961,0.306744 0.3575257,0.802386 0.4487306,1.101426 0.1512279,0.49583 0.1659669,0.632613 0.1673871,1.553348 0.00141,0.926831 -0.01203,1.053737 -0.164104,1.547395 -0.1576266,0.51167 -0.5362394,1.348414 -0.6375398,1.408974 -0.026082,0.01554 -0.2439213,-0.123771 -0.4840951,-0.309683 z m -3.1735398,0.03661 C 3.5324902,16.128298 3.3489627,15.983763 3.292924,15.944313 3.2000658,15.878968 3.2092308,15.835119 3.3963064,15.449878 3.7054671,14.813231 3.8235885,14.271219 3.8166609,13.521005 3.8087971,12.667711 3.6974797,12.273867 3.1509013,11.165186 2.4295898,9.7020839 2.2869464,9.1191347 2.3405475,7.853441 2.3791736,6.9413645 2.5094923,6.4127726 2.8854417,5.6432523 3.0212154,5.3653418 3.1451355,5.1379606 3.160819,5.1379606 c 0.015681,0 0.2303507,0.1553639 0.4770392,0.3452526 L 4.086381,5.8284658 3.8837071,6.2327932 C 3.5522844,6.8939665 3.4587307,7.3296104 3.4618014,8.1974719 c 0.00243,0.6983315 0.019969,0.8154456 0.2010852,1.346176 0.1091089,0.319719 0.3054534,0.7672141 0.4363226,0.9944211 1.0178771,1.767215 1.1285804,3.76734 0.3029277,5.473133 -0.13527,0.279473 -0.2795779,0.507139 -0.3206839,0.505941 -0.041107,-9.36e-4 -0.2124175,-0.114437 -0.3806901,-0.251641 z m 6.4861561,0 C 10.018645,16.1283 9.8349325,15.983634 9.7786682,15.944025 9.6853135,15.878306 9.6946291,15.834793 9.8852588,15.446089 10.196934,14.810602 10.302883,14.330284 10.30316,13.551611 10.303465,12.689376 10.153494,12.138472 9.6690246,11.222126 8.9861651,9.9305359 8.7727983,9.0767733 8.8262786,7.8499585 8.8675821,6.9023827 9.1159436,6.0130099 9.5163897,5.3786615 l 0.1542863,-0.2444053 0.449468,0.3459791 0.449467,0.3459791 -0.230043,0.4972379 c -0.315431,0.6818054 -0.3958542,1.0575442 -0.3945651,1.8434164 0.00141,0.8844877 0.1047471,1.2544602 0.6662881,2.3864223 0.25043,0.504817 0.531233,1.165674 0.624009,1.468561 0.155049,0.506202 0.168681,0.632303 0.168681,1.560351 0,0.923545 -0.0141,1.055488 -0.165314,1.547395 -0.193182,0.6284 -0.561304,1.390681 -0.670079,1.387545 -0.04165,-9.36e-4 -0.213397,-0.114437 -0.381669,-0.251641 z"
       id="path5150" />
  </g>
</svg>
