<?xml version="1.0" encoding="UTF-8" standalone="no"?>
<svg
   xmlns:dc="http://purl.org/dc/elements/1.1/"
   xmlns:cc="http://creativecommons.org/ns#"
   xmlns:rdf="http://www.w3.org/1999/02/22-rdf-syntax-ns#"
   xmlns:svg="http://www.w3.org/2000/svg"
   xmlns="http://www.w3.org/2000/svg"
   viewBox="0 0 25.6 25.6"
   height="25.6"
   width="25.6"
   id="svg4567"
   version="1.1">
  <metadata
     id="metadata4573">
    <rdf:RDF>
      <cc:Work
         rdf:about="">
        <dc:format>image/svg+xml</dc:format>
        <dc:type
           rdf:resource="http://purl.org/dc/dcmitype/StillImage" />
        <dc:title></dc:title>
      </cc:Work>
    </rdf:RDF>
  </metadata>
  <defs
     id="defs4571" />
  <g
     id="g5173">
    <path
       style="fill:#106f5c;fill-opacity:1;stroke-width:0.04887771"
       d="M 6.0952509,22.264274 C 5.2241603,22.07531 4.3931483,21.426091 3.9982282,20.625997 3.7970221,20.218362 3.6488484,19.689496 3.6471318,19.372856 l -8.495e-4,-0.156538 -1.2623127,-0.01454 c -1.2423464,-0.0143 -1.2650305,-0.01639 -1.43408087,-0.13232 -0.0944708,-0.06478 -0.224771,-0.195138 -0.2895535,-0.289677 l -0.1177875,-0.17189 -0.0134218,-6.60208 c -0.012063,-5.9359482 -0.00557,-6.6228095 0.064264,-6.8075325 0.086396,-0.228473 0.3444676,-0.4820447 0.54879797,-0.5392262 0.073434,-0.02055 2.8608935,-0.037364 6.1943533,-0.037364 h 6.0608358 l 0.196351,0.1125795 c 0.107992,0.061918 0.250959,0.1922732 0.317705,0.2896767 l 0.121354,0.1770976 0.01274,6.6641119 c 0.01237,6.469376 0.01002,6.66944 -0.08034,6.846468 -0.114833,0.224996 -0.225627,0.327766 -0.458055,0.42488 -0.150305,0.0628 -0.46189,0.07518 -1.892223,0.07518 H 9.9026202 l -8.5e-4,0.158853 c -0.0017,0.318795 -0.149332,0.846688 -0.351097,1.255455 -0.617282,1.250589 -2.069234,1.938983 -3.4554324,1.638277 z m 1.3256447,-1.647145 c 0.973787,-0.445814 1.208495,-1.746743 0.45168,-2.50356 -0.594293,-0.594291 -1.6019466,-0.594291 -2.1962389,0 -0.3810046,0.381005 -0.5455729,0.994782 -0.4005146,1.493765 0.2755744,0.947943 1.2639129,1.413205 2.1450735,1.009795 z M 19.70261,22.266578 c -1.015822,-0.226925 -1.764112,-0.81931 -2.194539,-1.737313 -0.153943,-0.328326 -0.216554,-0.564919 -0.300174,-1.134285 l -0.02692,-0.183291 -0.792048,-1.95e-4 c -0.88853,-1.96e-4 -1.022404,-0.03971 -1.192916,-0.35202 -0.08321,-0.152402 -0.0879,-0.467695 -0.0879,-5.904131 0,-5.436437 0.0047,-5.7517294 0.08791,-5.9041448 0.04835,-0.088558 0.158325,-0.2039491 0.244389,-0.2564252 0.150365,-0.091684 0.265538,-0.095419 2.9475,-0.095594 l 2.79102,-1.955e-4 0.166082,0.1099748 c 0.118654,0.078571 0.742141,0.9724709 2.183401,3.130368 l 2.017321,3.0203917 -0.01333,2.929677 -0.01333,2.929676 -0.183981,0.184084 -0.18398,0.184082 -0.854671,0.01537 -0.85467,0.01537 -7.24e-4,0.204579 c -0.0034,0.975792 -0.7517,2.099945 -1.709997,2.569046 -0.672622,0.329259 -1.365142,0.423133 -2.028425,0.274962 z m 1.033758,-1.558984 c 0.674159,-0.179502 1.1413,-0.791784 1.1413,-1.495905 0,-0.537922 -0.250881,-1.000673 -0.700775,-1.292587 -1.134446,-0.736082 -2.584511,0.206343 -2.3733,1.542455 0.144925,0.916788 1.028929,1.486694 1.932775,1.246037 z m 2.900898,-7.777123 c 0,-0.01369 -0.61599,-0.948467 -1.368866,-2.077304 L 20.899535,8.8007376 h -1.319408 -1.319409 v 2.0773014 2.077304 h 2.688274 c 1.47855,0 2.688274,-0.01119 2.688274,-0.02487 z"
       id="path4577" />
    <path
       style="fill:#ffffff;stroke-width:0.01650436"
       d="M 6.4453982,15.718555 C 6.3622309,15.576092 6.0883616,15.110462 5.8367993,14.683825 4.4001356,12.247309 4.1664924,11.84505 4.032499,11.577378 3.5017954,10.517207 3.2214712,9.6574016 3.2214712,9.0897926 c 0,-0.456951 0.1316792,-1.012703 0.3443451,-1.453331 C 3.7399845,7.2756057 3.9168435,7.0201049 4.1865141,6.7397614 4.742162,6.1621249 5.4199582,5.8093111 6.2103473,5.6862945 c 0.259289,-0.040359 0.7773123,-0.040359 1.0366013,0 1.1451471,0.1782328 2.1089985,0.8773694 2.6221454,1.9019921 0.156824,0.313138 0.27333,0.681253 0.328658,1.038436 0.03873,0.250041 0.03868,0.691737 -1.16e-4,0.891238 C 10.111985,9.9584716 9.9456912,10.40757 9.6506751,10.9951 9.4431037,11.408482 9.4599888,11.380214 8.4528402,13.000379 8.2835565,13.272703 7.8012466,14.048818 7.38104,14.725084 c -0.4202044,0.676267 -0.7686033,1.234734 -0.7742185,1.241037 -0.00561,0.0063 -0.078256,-0.105102 -0.1614233,-0.247566 z m 0.5803292,-4.692649 c 0.6903941,-0.08993 1.3422148,-0.631291 1.5769784,-1.3097444 0.07203,-0.208169 0.1000418,-0.362353 0.1097665,-0.604211 0.014637,-0.363857 -0.054902,-0.67239 -0.2249525,-0.998175 C 7.9384853,7.0619238 6.5905952,6.7175478 5.6000223,7.3760416 c -0.8781337,0.58375 -1.1518381,1.765932 -0.6200965,2.6783094 0.2524666,0.433187 0.6643318,0.760615 1.1386209,0.905189 0.310398,0.09461 0.5536789,0.112412 0.9071807,0.06637 z"
       id="path5169" />
  </g>
</svg>
