<?xml version="1.0" encoding="UTF-8" standalone="no"?>
<svg
   xmlns:dc="http://purl.org/dc/elements/1.1/"
   xmlns:cc="http://creativecommons.org/ns#"
   xmlns:rdf="http://www.w3.org/1999/02/22-rdf-syntax-ns#"
   xmlns:svg="http://www.w3.org/2000/svg"
   xmlns="http://www.w3.org/2000/svg"
   viewBox="0 0 25.6 25.6"
   height="25.6"
   width="25.6"
   id="svg4567"
   version="1.1">
  <metadata
     id="metadata4573">
    <rdf:RDF>
      <cc:Work
         rdf:about="">
        <dc:format>image/svg+xml</dc:format>
        <dc:type
           rdf:resource="http://purl.org/dc/dcmitype/StillImage" />
        <dc:title></dc:title>
      </cc:Work>
    </rdf:RDF>
  </metadata>
  <defs
     id="defs4571" />
  <g
     id="g5137">
    <path
       style="fill:#106f5c;stroke-width:0.04887771;fill-opacity:1"
       d="M 5.8300857,22.043303 C 4.9589951,21.854339 4.1279831,21.20512 3.733063,20.405026 3.5318569,19.997391 3.3836832,19.468525 3.3819666,19.151885 L 3.3811171,18.995347 2.1188044,18.980811 C 0.87645822,18.966509 0.85377408,18.964417 0.68472368,18.848491 0.59025285,18.783708 0.45995269,18.653353 0.39517017,18.558814 L 0.27738272,18.386924 0.2639609,11.784844 C 0.25189788,5.8488959 0.25838884,5.1620346 0.32822531,4.9773116 0.41462155,4.7488386 0.67269293,4.4952669 0.87702325,4.4380854 0.95045711,4.4175352 3.7379166,4.4007213 7.0713762,4.4007213 h 6.0608358 l 0.196351,0.1125795 c 0.107992,0.061918 0.250959,0.1922732 0.317705,0.2896767 l 0.121354,0.1770976 0.01274,6.6641119 c 0.01237,6.469376 0.01002,6.66944 -0.08034,6.846468 -0.114833,0.224996 -0.225627,0.327766 -0.458055,0.42488 -0.150305,0.0628 -0.46189,0.07518 -1.892223,0.07518 H 9.6374557 l -8.505e-4,0.158853 C 9.6349452,19.468363 9.4872731,19.996256 9.2855089,20.405023 8.6682265,21.655612 7.2162741,22.344006 5.830076,22.0433 Z m 1.3256446,-1.647145 c 0.9737876,-0.445814 1.2084954,-1.746743 0.4516799,-2.50356 -0.5942923,-0.594291 -1.6019464,-0.594291 -2.1962387,0 -0.3810046,0.381005 -0.5455729,0.994782 -0.4005146,1.493765 0.2755744,0.947943 1.2639129,1.413205 2.1450734,1.009795 z m 12.2817137,1.649449 c -1.015822,-0.226925 -1.764112,-0.81931 -2.194539,-1.737313 -0.153943,-0.328326 -0.216554,-0.564919 -0.300174,-1.134285 l -0.02692,-0.183291 -0.792048,-1.95e-4 c -0.88853,-1.96e-4 -1.022404,-0.03971 -1.192916,-0.35202 -0.08321,-0.152402 -0.0879,-0.467695 -0.0879,-5.904131 0,-5.4364369 0.0047,-5.7517293 0.08791,-5.9041447 0.04835,-0.088558 0.158325,-0.2039491 0.244389,-0.2564252 0.150365,-0.091684 0.265538,-0.095419 2.9475,-0.095594 l 2.79102,-1.955e-4 0.166082,0.1099748 c 0.118654,0.078571 0.742141,0.9724709 2.183401,3.130368 l 2.017321,3.0203916 -0.01333,2.929677 -0.01333,2.929676 -0.183981,0.184084 -0.18398,0.184082 -0.854671,0.01537 -0.85467,0.01537 -7.24e-4,0.204579 c -0.0034,0.975792 -0.7517,2.099945 -1.709997,2.569046 -0.672622,0.329259 -1.365142,0.423133 -2.028425,0.274962 z m 1.033758,-1.558984 c 0.674159,-0.179502 1.1413,-0.791784 1.1413,-1.495905 0,-0.537922 -0.250881,-1.000673 -0.700775,-1.292587 -1.134446,-0.736082 -2.584511,0.206343 -2.3733,1.542455 0.144925,0.916788 1.028929,1.486694 1.932775,1.246037 z M 23.3721,12.7095 c 0,-0.01369 -0.61599,-0.948467 -1.368866,-2.077303 L 20.634369,8.5797667 h -1.319408 -1.319409 v 2.0773023 2.077303 h 2.688274 c 1.47855,0 2.688274,-0.01119 2.688274,-0.02487 z"
       id="path4577" />
    <path
       style="fill:#ffffff;stroke-width:0.02355117"
       d="M 6.6881534,16.96158 C 6.6009144,16.92119 6.5226959,16.838105 6.4895372,16.750589 6.4757232,16.714119 6.4644192,16.534148 6.4644192,16.350641 v -0.33365 L 6.2230197,16.25677 c -0.1327703,0.131881 -0.271234,0.250919 -0.3076985,0.264531 -0.1724686,0.06439 -0.3992587,-0.01835 -0.4723132,-0.172303 -0.047411,-0.09991 -0.049534,-0.255319 -0.00463,-0.339906 0.018562,-0.03497 0.2570191,-0.28606 0.5299022,-0.557961 l 0.4961451,-0.494365 v -1.073914 -1.073915 l -0.1346195,-0.0323 C 6.2557676,12.758868 6.1047455,12.69895 5.9942048,12.643471 L 5.7932189,12.542602 4.9983673,13.337196 4.2035153,14.13179 v 0.714882 c 0,0.798044 -0.00406,0.821896 -0.1604507,0.941177 -0.108762,0.08295 -0.3181246,0.09039 -0.4192578,0.01488 C 3.4725706,15.68982 3.4623312,15.656975 3.45407,15.258274 L 3.44648,14.892263 3.2419779,15.092378 C 3.007537,15.321796 2.9119074,15.366779 2.7508365,15.323407 2.6318133,15.291357 2.4932288,15.145763 2.4715003,15.02994 2.4449092,14.888215 2.4992366,14.783747 2.7140329,14.563561 L 2.9134027,14.359182 2.547394,14.351641 C 2.2213682,14.3449 2.1742879,14.338753 2.1164385,14.295505 1.9928962,14.203137 1.9543761,14.127913 1.9543761,13.979019 c 0,-0.148918 0.038546,-0.22417 0.16211,-0.316485 0.061958,-0.04629 0.099914,-0.04888 0.8121103,-0.05536 l 0.7471135,-0.0069 0.7960096,-0.796268 0.7960084,-0.796267 -0.072972,-0.129298 C 5.1201019,11.74616 5.0042534,11.441206 5.0042534,11.37697 c 0,-0.03147 -0.1295206,-0.03576 -1.0776768,-0.03576 H 2.8489015 l -0.4943653,0.496951 c -0.2718999,0.273329 -0.5284668,0.511784 -0.5701503,0.529902 -0.2488816,0.108182 -0.5247692,-0.07181 -0.5247692,-0.342365 0,-0.138361 0.037465,-0.195708 0.2932989,-0.448984 l 0.2259995,-0.223737 -0.3639947,-0.01177 c -0.3954615,-0.01279 -0.43053438,-0.02404 -0.54244294,-0.173928 -0.0680854,-0.09119 -0.0680854,-0.314587 0,-0.405782 C 0.98540533,10.610288 1.0182075,10.600066 1.4171909,10.591802 L 1.7834555,10.584211 1.535099,10.33218 C 1.3909709,10.185919 1.2798331,10.052614 1.2702756,10.014538 1.2448367,9.9131785 1.2716239,9.7514682 1.3266744,9.674168 1.4216155,9.5408359 1.6530343,9.4853774 1.7965788,9.5615589 1.8315595,9.5801205 2.082639,9.8185766 2.354539,10.09146 l 0.4943653,0.49615 h 1.0720816 1.0720819 l 0.045114,-0.158971 c 0.024809,-0.08743 0.085865,-0.238149 0.1356759,-0.334925 L 5.264422,9.917759 4.4700692,9.1231482 3.6757157,8.3285373 2.9309312,8.3217274 2.1861447,8.3149175 2.0972034,8.2470469 C 1.8860857,8.0859457 1.8950867,7.7988889 2.1164468,7.6333882 2.1743195,7.5901202 2.2213764,7.5840015 2.5484649,7.5772339 L 2.9155382,7.5696242 2.7244373,7.3770382 C 2.5082069,7.1591414 2.4495552,7.0494976 2.4734783,6.9079013 2.4949482,6.780841 2.6246244,6.6394299 2.7508451,6.6054424 2.911916,6.5620715 3.0075456,6.6070535 3.2419909,6.8364713 l 0.204502,0.200116 0.00759,-0.3660104 c 0.00675,-0.3260248 0.012886,-0.3731058 0.056142,-0.4309564 0.092367,-0.1235404 0.1675916,-0.1620606 0.3164853,-0.1620606 0.1489206,0 0.2241716,0.038546 0.3164859,0.1621095 0.046286,0.061957 0.048878,0.099914 0.055364,0.8121096 l 0.00681,0.7471136 0.7946108,0.7943541 0.7946115,0.7943523 0.175955,-0.090564 C 6.0673133,9.2472238 6.2180302,9.1861703 6.3054638,9.1613588 L 6.4644341,9.116251 V 8.0441685 6.9720854 L 5.9682847,6.4777221 C 5.6954017,6.2058214 5.4569462,5.9547389 5.4383826,5.9197613 5.3622019,5.7762168 5.4176592,5.5447981 5.5509932,5.4498568 c 0.0773,-0.055041 0.2390099,-0.081836 0.3403697,-0.056399 0.038076,0.00955 0.1713817,0.1206953 0.3176419,0.2648239 l 0.2520303,0.2483566 0.00759,-0.366264 c 0.00827,-0.3989827 0.018485,-0.4317864 0.1697393,-0.5447129 0.091194,-0.068086 0.3145867,-0.068086 0.4057815,0 0.1498889,0.1119075 0.1611347,0.1469808 0.1739277,0.5424411 l 0.011774,0.363996 0.2237364,-0.2259988 c 0.2531496,-0.2557098 0.3106465,-0.293299 0.4486308,-0.293299 0.2555315,0 0.4133212,0.2005569 0.3649148,0.4638187 -0.014148,0.076939 -0.089592,0.1631009 -0.5327696,0.608433 L 7.2180671,6.9738515 v 1.0767921 c 0,0.9473654 0.00431,1.0767921 0.035773,1.0767921 0.064236,0 0.369189,0.1158486 0.5014691,0.1905032 L 7.8846084,9.39091 8.6808756,8.5949017 9.4771425,7.7988921 9.4839524,7.0517786 c 0.00649,-0.7121958 0.00908,-0.7501517 0.055364,-0.8121097 0.092315,-0.1235648 0.167566,-0.1621094 0.3164853,-0.1621094 0.1488943,0 0.2241183,0.038519 0.3164853,0.1620605 0.04325,0.057853 0.04939,0.104932 0.05614,0.4309564 l 0.0076,0.3660109 0.204377,-0.199371 c 0.220186,-0.2147936 0.324654,-0.2691218 0.466379,-0.2425339 0.115821,0.021728 0.261418,0.1603137 0.293467,0.2793363 0.04337,0.1610702 -0.0016,0.2567012 -0.231029,0.4911463 l -0.200115,0.2045022 0.36601,0.00759 c 0.326024,0.00675 0.373105,0.012887 0.430956,0.056142 0.123542,0.092367 0.16206,0.1675916 0.16206,0.3164852 0,0.1489206 -0.03855,0.2241716 -0.162109,0.3164858 -0.06195,0.046286 -0.09991,0.048878 -0.812109,0.055364 L 10.006786,8.3285404 9.2132476,9.122473 8.419711,9.9164046 8.5218035,10.123055 c 0.056149,0.11366 0.1160128,0.264681 0.1330278,0.335605 l 0.030934,0.128953 h 1.0730308 1.0730299 l 0.518799,-0.516458 c 0.337304,-0.3357791 0.541948,-0.522175 0.584968,-0.5328063 0.0989,-0.024443 0.26185,7.72e-4 0.329812,0.051014 0.133543,0.098741 0.190974,0.2931002 0.132723,0.4491463 -0.01362,0.03647 -0.131882,0.174159 -0.262823,0.305986 l -0.238074,0.239688 0.367168,0.0076 c 0.399986,0.0083 0.432646,0.01844 0.545618,0.169754 0.06809,0.09119 0.06809,0.314586 0,0.40578 -0.111907,0.149889 -0.146981,0.161135 -0.542441,0.173928 l -0.363998,0.01178 0.226001,0.223736 c 0.255709,0.25315 0.293298,0.310646 0.293298,0.448632 0,0.255531 -0.200556,0.413321 -0.463819,0.364915 -0.07694,-0.01416 -0.163099,-0.0896 -0.608433,-0.532774 L 10.831826,11.341248 H 9.7606279 8.6894294 l -0.045115,0.15897 c -0.024809,0.08743 -0.085864,0.238151 -0.1356755,0.334927 l -0.090564,0.175953 0.7943524,0.794612 0.7943537,0.794611 0.747114,0.0069 c 0.712197,0.0065 0.750152,0.0091 0.812109,0.05536 0.12294,0.09184 0.162111,0.167757 0.162111,0.314158 0,0.110867 -0.01154,0.150654 -0.06344,0.218694 -0.106045,0.139035 -0.181026,0.160449 -0.561803,0.160449 h -0.335507 l 0.211924,0.219064 c 0.231974,0.239789 0.265626,0.314017 0.219697,0.484584 -0.03271,0.121472 -0.176513,0.251689 -0.301218,0.272759 -0.141595,0.02393 -0.25124,-0.03474 -0.469149,-0.250959 l -0.192585,-0.191103 -0.0076,0.367074 c -0.0068,0.327088 -0.01289,0.374148 -0.05616,0.432018 -0.09237,0.123542 -0.167591,0.162063 -0.3164852,0.162063 -0.1489194,0 -0.2241703,-0.03855 -0.3164852,-0.162112 -0.046286,-0.06195 -0.048878,-0.09991 -0.055364,-0.812109 l -0.0068,-0.747156 -0.7946102,-0.794352 -0.7946117,-0.794354 -0.1759551,0.09056 c -0.096775,0.04981 -0.2474918,0.110867 -0.3349247,0.135676 l -0.1589711,0.04511 v 1.072083 1.072083 l 0.4969603,0.494365 c 0.2733282,0.271899 0.5117837,0.528467 0.529902,0.570149 0.1320189,0.303724 -0.1665448,0.616197 -0.477764,0.500021 -0.036467,-0.01362 -0.174158,-0.131884 -0.3059858,-0.262824 l -0.2396871,-0.238074 -0.00761,0.367167 c -0.00825,0.3984 -0.018819,0.43293 -0.1662722,0.54302 -0.078043,0.05826 -0.2655965,0.07444 -0.3594527,0.03099 z M 7.1110959,12.058818 C 7.7160053,11.901259 8.0891317,11.283893 7.9356308,10.694563 7.7898294,10.134795 7.250598,9.7690057 6.6902245,9.8497364 6.1891854,9.9219178 5.7989649,10.310743 5.7271277,10.80939 c -0.1124891,0.78083 0.6254191,1.447004 1.3839682,1.249428 z"
       id="path5133" />
  </g>
</svg>
