<?xml version="1.0" encoding="UTF-8" standalone="no"?>
<svg
   xmlns:dc="http://purl.org/dc/elements/1.1/"
   xmlns:cc="http://creativecommons.org/ns#"
   xmlns:rdf="http://www.w3.org/1999/02/22-rdf-syntax-ns#"
   xmlns:svg="http://www.w3.org/2000/svg"
   xmlns="http://www.w3.org/2000/svg"
   viewBox="0 0 25.6 25.6"
   height="25.6"
   width="25.6"
   id="svg4567"
   version="1.1">
  <metadata
     id="metadata4573">
    <rdf:RDF>
      <cc:Work
         rdf:about="">
        <dc:format>image/svg+xml</dc:format>
        <dc:type
           rdf:resource="http://purl.org/dc/dcmitype/StillImage" />
        <dc:title></dc:title>
      </cc:Work>
    </rdf:RDF>
  </metadata>
  <defs
     id="defs4571" />
  <g
     id="g5190">
    <path
       style="fill:#106f5c;fill-opacity:1;stroke-width:0.04887771"
       d="M 6.0952509,22.264274 C 5.2241603,22.07531 4.3931483,21.426091 3.9982282,20.625997 3.7970221,20.218362 3.6488484,19.689496 3.6471318,19.372856 l -8.495e-4,-0.156538 -1.2623127,-0.01454 c -1.2423464,-0.0143 -1.2650305,-0.01639 -1.43408087,-0.13232 -0.0944708,-0.06478 -0.224771,-0.195138 -0.2895535,-0.289677 l -0.1177875,-0.17189 -0.0134218,-6.60208 c -0.012063,-5.9359482 -0.00557,-6.6228095 0.064264,-6.8075325 0.086396,-0.228473 0.3444676,-0.4820447 0.54879797,-0.5392262 0.073434,-0.02055 2.8608935,-0.037364 6.1943533,-0.037364 h 6.0608358 l 0.196351,0.1125795 c 0.107992,0.061918 0.250959,0.1922732 0.317705,0.2896767 l 0.121354,0.1770976 0.01274,6.6641119 c 0.01237,6.469376 0.01002,6.66944 -0.08034,6.846468 -0.114833,0.224996 -0.225627,0.327766 -0.458055,0.42488 -0.150305,0.0628 -0.46189,0.07518 -1.892223,0.07518 H 9.9026202 l -8.5e-4,0.158853 c -0.0017,0.318795 -0.149332,0.846688 -0.351097,1.255455 -0.617282,1.250589 -2.069234,1.938983 -3.4554324,1.638277 z m 1.3256447,-1.647145 c 0.973787,-0.445814 1.208495,-1.746743 0.45168,-2.50356 -0.594293,-0.594291 -1.6019466,-0.594291 -2.1962389,0 -0.3810046,0.381005 -0.5455729,0.994782 -0.4005146,1.493765 0.2755744,0.947943 1.2639129,1.413205 2.1450735,1.009795 z M 19.70261,22.266578 c -1.015822,-0.226925 -1.764112,-0.81931 -2.194539,-1.737313 -0.153943,-0.328326 -0.216554,-0.564919 -0.300174,-1.134285 l -0.02692,-0.183291 -0.792048,-1.95e-4 c -0.88853,-1.96e-4 -1.022404,-0.03971 -1.192916,-0.35202 -0.08321,-0.152402 -0.0879,-0.467695 -0.0879,-5.904131 0,-5.436437 0.0047,-5.7517294 0.08791,-5.9041448 0.04835,-0.088558 0.158325,-0.2039491 0.244389,-0.2564252 0.150365,-0.091684 0.265538,-0.095419 2.9475,-0.095594 l 2.79102,-1.955e-4 0.166082,0.1099748 c 0.118654,0.078571 0.742141,0.9724709 2.183401,3.130368 l 2.017321,3.0203917 -0.01333,2.929677 -0.01333,2.929676 -0.183981,0.184084 -0.18398,0.184082 -0.854671,0.01537 -0.85467,0.01537 -7.24e-4,0.204579 c -0.0034,0.975792 -0.7517,2.099945 -1.709997,2.569046 -0.672622,0.329259 -1.365142,0.423133 -2.028425,0.274962 z m 1.033758,-1.558984 c 0.674159,-0.179502 1.1413,-0.791784 1.1413,-1.495905 0,-0.537922 -0.250881,-1.000673 -0.700775,-1.292587 -1.134446,-0.736082 -2.584511,0.206343 -2.3733,1.542455 0.144925,0.916788 1.028929,1.486694 1.932775,1.246037 z m 2.900898,-7.777123 c 0,-0.01369 -0.61599,-0.948467 -1.368866,-2.077304 L 20.899535,8.8007376 h -1.319408 -1.319409 v 2.0773014 2.077304 h 2.688274 c 1.47855,0 2.688274,-0.01119 2.688274,-0.02487 z"
       id="path4577" />
    <path
       style="fill:#ffffff;stroke-width:0.04204287"
       d="m 6.6915994,16.108726 c -0.3934068,-0.08432 -0.9363703,-0.308224 -1.30052,-0.53629 -1.7893862,-1.12068 -2.6410233,-3.330338 -2.4634032,-6.3915435 0.02559,-0.4409913 0.068789,-0.8486387 0.096006,-0.9058838 0.04276,-0.08995 0.3205498,-0.202698 2.0457717,-0.8303459 1.0979575,-0.3994456 2.0155096,-0.7262331 2.039003,-0.7261939 0.091017,1.52e-4 3.9979571,1.4374389 4.0520991,1.4906881 0.161143,0.1584866 0.195408,2.283362 0.05224,3.239063 -0.144016,0.961298 -0.334675,1.580135 -0.70716,2.295277 -0.6294152,1.208425 -1.782567,2.116886 -3.0058277,2.368018 -0.3834705,0.07873 -0.4286413,0.07858 -0.8082002,-0.0027 z m 2.0460287,-2.870235 0.1373028,-0.12268 v -1.07899 -1.07899 l -0.1373028,-0.12268 c -0.096026,-0.08579 -0.1813393,-0.12268 -0.2837893,-0.12268 H 8.3073522 l -9.2e-4,-0.557068 C 8.3053888,9.526612 8.2531699,9.3443585 8.0171431,9.1457544 7.8119706,8.9731133 7.6298031,8.9380904 7.0178368,8.9536343 6.4809999,8.9672663 6.4589639,8.9714818 6.2854543,9.0938197 6.1870639,9.163191 6.062541,9.3033318 6.0087385,9.4052443 5.9204865,9.5724183 5.9109156,9.6453971 5.9109156,10.151505 v 0.560966 H 5.7644295 c -0.1024539,0 -0.1877621,0.03688 -0.2837895,0.12268 l -0.1373023,0.12268 v 1.07899 1.07899 l 0.1373023,0.12268 0.1373034,0.12268 h 1.4911944 1.4911953 z m -1.787661,-0.491947 c -0.016516,-0.01652 -0.03003,-0.189437 -0.03003,-0.384267 0,-0.290576 -0.015112,-0.373447 -0.084085,-0.461134 -0.2148841,-0.273182 0.027233,-0.665665 0.3592348,-0.582338 0.2509013,0.06297 0.3519454,0.373054 0.1890478,0.580145 -0.064981,0.08261 -0.084942,0.183608 -0.094596,0.478651 l -0.012237,0.373948 -0.1486527,0.0125 c -0.081759,0.0069 -0.162166,-9.57e-4 -0.178682,-0.01751 z M 6.4995088,10.207957 c 0,-0.6693576 0.00302,-0.672686 0.6096216,-0.672686 0.6066051,0 0.6096217,0.00332 0.6096217,0.672686 v 0.504514 H 7.1091304 6.4995088 Z"
       id="path5186" />
  </g>
</svg>
